<?xml version="1.0" encoding="UTF-8"?>
<svg version="1.1" xmlns="http://www.w3.org/2000/svg" width="446" height="105">
<path d="M0 0 C0.78961121 0.00187317 1.57922241 0.00374634 2.39276123 0.00567627 C4.05355076 0.01237482 5.71432509 0.0262455 7.375 0.046875 C9.9272311 0.07819072 12.4788453 0.08786436 15.03125 0.09375 C16.64584093 0.10291404 18.26042554 0.11328789 19.875 0.125 C20.6416095 0.12924988 21.40821899 0.13349976 22.19805908 0.13787842 C27.55467527 0.21092527 27.55467527 0.21092527 28.671875 1.328125 C28.74501067 3.85861902 28.76435027 6.36117337 28.734375 8.890625 C28.72986328 9.60154297 28.72535156 10.31246094 28.72070312 11.04492188 C28.70888364 12.80602513 28.69094763 14.56708536 28.671875 16.328125 C25.82651775 17.75080362 23.30968948 17.54784369 20.1328125 17.64453125 C18.83085937 17.68642578 17.52890625 17.72832031 16.1875 17.77148438 C14.80729455 17.81129799 13.42708617 17.85101022 12.046875 17.890625 C10.65884085 17.93381907 9.27081972 17.97743365 7.8828125 18.02148438 C4.47927244 18.127845 1.07565722 18.22987214 -2.328125 18.328125 C-2.328125 19.318125 -2.328125 20.308125 -2.328125 21.328125 C-1.47432251 21.2967041 -1.47432251 21.2967041 -0.60327148 21.26464844 C2.00909316 21.18081506 4.62117384 21.12925682 7.234375 21.078125 C8.57725586 21.02785156 8.57725586 21.02785156 9.94726562 20.9765625 C16.11744531 20.88615694 19.62415309 21.73014045 24.671875 25.328125 C29.06244479 29.83735884 30.49073032 34.04570209 30.984375 40.265625 C30.77291289 47.20422539 27.49717224 52.50282776 22.671875 57.328125 C17.57181035 59.98248487 13.38418403 60.76708884 7.62109375 60.69140625 C6.8810762 60.69190475 6.14105865 60.69240326 5.37861633 60.69291687 C3.82814828 60.69059227 2.27767528 60.68096001 0.72729492 60.66430664 C-1.65154378 60.6405158 -4.02927408 60.64378181 -6.40820312 60.65039062 C-7.91927753 60.64481943 -9.43034724 60.63771308 -10.94140625 60.62890625 C-11.65283279 60.62981766 -12.36425934 60.63072906 -13.09724426 60.63166809 C-18.09701462 60.55923538 -18.09701462 60.55923538 -20.328125 58.328125 C-20.59375 55.359375 -20.59375 55.359375 -20.578125 51.828125 C-20.58328125 50.6628125 -20.5884375 49.4975 -20.59375 48.296875 C-20.328125 45.328125 -20.328125 45.328125 -18.328125 43.328125 C-15.34716797 43.00927734 -15.34716797 43.00927734 -11.5703125 42.9140625 C-10.90726105 42.89469635 -10.24420959 42.8753302 -9.56106567 42.8553772 C-7.44188323 42.79556546 -5.3226465 42.74919112 -3.203125 42.703125 C-1.76690331 42.66494655 -0.33070455 42.62589489 1.10546875 42.5859375 C4.62739436 42.48986375 8.14949108 42.40583858 11.671875 42.328125 C11.671875 41.668125 11.671875 41.008125 11.671875 40.328125 C10.82592773 40.32981689 10.82592773 40.32981689 9.96289062 40.33154297 C7.36472431 40.31930754 4.76939846 40.26149631 2.171875 40.203125 C1.285 40.20570312 0.398125 40.20828125 -0.515625 40.2109375 C-7.35789946 40.00969413 -11.44360326 38.13456511 -16.328125 33.328125 C-20.68743405 28.03044447 -21.57779712 22.09923282 -21.328125 15.328125 C-20.03407593 9.21288428 -16.02830887 5.36894734 -11.18457031 1.70800781 C-7.43946775 -0.10116481 -4.06761695 -0.06621124 0 0 Z " fill="#2A3144" transform="translate(355.328125,23.671875)"/>
<path d="M0 0 C5.86856948 0.06370933 8.67668212 2.74417062 12.67575073 6.80813599 C14.12079565 8.3289376 15.53903245 9.8719612 16.95703125 11.41796875 C17.92663877 12.4378318 18.89863026 13.45543389 19.87304688 14.47070312 C21.66966853 16.34846955 23.44708213 18.23897751 25.21606445 20.14331055 C31.72712068 27.30877551 31.72712068 27.30877551 39.64453125 32.73046875 C38.52041365 31.43803407 37.39520533 30.146548 36.26953125 28.85546875 C35.64304687 28.13617188 35.0165625 27.416875 34.37109375 26.67578125 C33.17026291 25.32280895 31.92369675 24.00963425 30.64453125 22.73046875 C30.40161133 20.59155273 30.40161133 20.59155273 30.4140625 17.9765625 C30.41599609 17.04005859 30.41792969 16.10355469 30.41992188 15.13867188 C30.43829102 13.66817383 30.43829102 13.66817383 30.45703125 12.16796875 C30.45767578 11.18376953 30.45832031 10.19957031 30.45898438 9.18554688 C30.50435593 1.87064407 30.50435593 1.87064407 31.64453125 0.73046875 C33.9761318 0.63137573 36.31083067 0.60076371 38.64453125 0.60546875 C39.92328125 0.60289063 41.20203125 0.6003125 42.51953125 0.59765625 C45.64453125 0.73046875 45.64453125 0.73046875 46.64453125 1.73046875 C46.74352686 3.53556248 46.77252276 5.34453803 46.77392578 7.15234375 C46.77707794 8.31024414 46.7802301 9.46814453 46.78347778 10.66113281 C46.78145355 11.92151367 46.77942932 13.18189453 46.77734375 14.48046875 C46.77830048 15.76405273 46.7792572 17.04763672 46.78024292 18.37011719 C46.78171956 21.09050699 46.77956644 23.810864 46.77490234 26.53125 C46.76920506 30.02531544 46.77248424 33.51930408 46.77847481 37.0133667 C46.78294879 40.33574028 46.7798201 43.65809298 46.77734375 46.98046875 C46.77936798 48.24084961 46.78139221 49.50123047 46.78347778 50.79980469 C46.77874954 52.53665527 46.77874954 52.53665527 46.77392578 54.30859375 C46.77313019 55.3337207 46.77233459 56.35884766 46.77151489 57.41503906 C46.64453125 59.73046875 46.64453125 59.73046875 45.64453125 60.73046875 C42.14417294 61.52916162 39.14341161 61.55137916 35.64453125 60.73046875 C32.64276603 58.33783687 30.44491885 55.41646309 28.06396484 52.42236328 C25.16353616 48.96519596 21.94963371 45.8030297 18.76953125 42.60546875 C18.1144458 41.92991943 17.45936035 41.25437012 16.78442383 40.55834961 C16.1633374 39.9319458 15.54225098 39.30554199 14.90234375 38.66015625 C14.34691895 38.09538574 13.79149414 37.53061523 13.21923828 36.94873047 C11.58088835 35.4245182 11.58088835 35.4245182 8.64453125 35.73046875 C9.30453125 36.39046875 9.96453125 37.05046875 10.64453125 37.73046875 C10.88745117 39.96118164 10.88745117 39.96118164 10.875 42.703125 C10.87306641 43.68474609 10.87113281 44.66636719 10.86914062 45.67773438 C10.85077148 47.21977539 10.85077148 47.21977539 10.83203125 48.79296875 C10.83138672 49.82486328 10.83074219 50.85675781 10.83007812 51.91992188 C10.78469122 59.59030878 10.78469122 59.59030878 9.64453125 60.73046875 C7.3129307 60.82956177 4.97823183 60.86017379 2.64453125 60.85546875 C1.36578125 60.85804687 0.08703125 60.860625 -1.23046875 60.86328125 C-4.35546875 60.73046875 -4.35546875 60.73046875 -5.35546875 59.73046875 C-5.49352689 57.24466051 -5.56854617 54.78855558 -5.59375 52.30078125 C-5.60182175 51.55464569 -5.60989349 50.80851013 -5.61820984 50.0397644 C-5.63206416 48.45768569 -5.64278027 46.87557691 -5.65063477 45.29345703 C-5.66785018 42.8721458 -5.71172107 40.45219906 -5.75585938 38.03125 C-5.76598577 36.49610382 -5.77450205 34.960946 -5.78125 33.42578125 C-5.79875809 32.70069366 -5.81626617 31.97560608 -5.83430481 31.22854614 C-5.82543945 29.17626953 -5.82543945 29.17626953 -5.35546875 25.73046875 C-3.32885742 23.74951172 -3.32885742 23.74951172 -1.35546875 22.73046875 C-2.00902344 22.075625 -2.66257813 21.42078125 -3.3359375 20.74609375 C-5.88411596 16.94107679 -5.84641478 13.89006851 -5.66796875 9.48046875 C-5.65830078 8.74828125 -5.64863281 8.01609375 -5.63867188 7.26171875 C-5.49621653 0.57251123 -5.49621653 0.57251123 0 0 Z " fill="#8068AA" transform="translate(234.35546875,23.26953125)"/>
<path d="M0 0 C4.22053117 3.55341495 7.69962108 6.80980075 9.484375 12.1640625 C9.5208626 13.83032972 9.52637846 15.4979252 9.484375 17.1640625 C6.56671609 17.27212394 3.65306375 17.35139127 0.734375 17.4140625 C-0.090625 17.44757812 -0.915625 17.48109375 -1.765625 17.515625 C-7.96296501 17.6155821 -7.96296501 17.6155821 -10.90625 15.2109375 C-11.43734375 14.53546875 -11.9684375 13.86 -12.515625 13.1640625 C-17.00831644 11.66649869 -20.84073108 11.47887862 -25.265625 13.2890625 C-28.21138967 15.74386639 -29.29756017 17.50986801 -30.515625 21.1640625 C-30.81472845 26.15205245 -30.26385106 29.24316888 -27.078125 33.1640625 C-23.02347643 36.32866626 -20.68483794 36.59483025 -15.515625 36.1640625 C-12.90714871 34.66660389 -10.64533598 33.29377348 -8.515625 31.1640625 C-5.65294933 31.09081082 -2.814906 31.07168045 0.046875 31.1015625 C0.85318359 31.10607422 1.65949219 31.11058594 2.49023438 31.11523438 C4.48831256 31.12705732 6.48635283 31.14499336 8.484375 31.1640625 C9.68889405 35.43221345 9.00060536 37.22261317 6.90625 41.07421875 C2.58867528 47.42010467 -4.0535709 52.31486542 -11.515625 54.1640625 C-20.87609109 55.25440251 -28.76215499 54.79797722 -36.515625 49.1640625 C-43.8804505 43.2722021 -48.01715527 36.70032374 -49.453125 27.3515625 C-49.951306 19.55077707 -48.16611598 10.92830062 -43.16015625 4.7578125 C-31.04381811 -6.98438693 -14.15542933 -10.33082576 0 0 Z " fill="#242D3F" transform="translate(159.515625,29.8359375)"/>
<path d="M0 0 C1.90072266 0.02126953 1.90072266 0.02126953 3.83984375 0.04296875 C5.74443359 0.05263672 5.74443359 0.05263672 7.6875 0.0625 C10.77734375 0.23046875 10.77734375 0.23046875 11.77734375 1.23046875 C11.87633936 3.03556248 11.90533526 4.84453803 11.90673828 6.65234375 C11.90989044 7.81024414 11.9130426 8.96814453 11.91629028 10.16113281 C11.91426605 11.42151367 11.91224182 12.68189453 11.91015625 13.98046875 C11.91111298 15.26405273 11.9120697 16.54763672 11.91305542 17.87011719 C11.91453206 20.59050699 11.91237894 23.310864 11.90771484 26.03125 C11.90201756 29.52531544 11.90529674 33.01930408 11.91128731 36.5133667 C11.91576129 39.83574028 11.9126326 43.15809298 11.91015625 46.48046875 C11.91218048 47.74084961 11.91420471 49.00123047 11.91629028 50.29980469 C11.91156204 52.03665527 11.91156204 52.03665527 11.90673828 53.80859375 C11.90594269 54.8337207 11.90514709 55.85884766 11.90432739 56.91503906 C11.77734375 59.23046875 11.77734375 59.23046875 10.77734375 60.23046875 C8.46740993 60.35604037 6.15315839 60.40622604 3.83984375 60.41796875 C2.57269531 60.43214844 1.30554688 60.44632813 0 60.4609375 C-3.22265625 60.23046875 -3.22265625 60.23046875 -5.22265625 58.23046875 C-5.44970703 56.35107422 -5.44970703 56.35107422 -5.41796875 54.09765625 C-5.41152344 53.29199219 -5.40507812 52.48632812 -5.3984375 51.65625 C-5.38167969 50.81449219 -5.36492187 49.97273438 -5.34765625 49.10546875 C-5.33863281 48.25597656 -5.32960937 47.40648437 -5.3203125 46.53125 C-5.29671272 44.43086991 -5.26084108 42.33063431 -5.22265625 40.23046875 C-6.50140625 40.31167969 -7.78015625 40.39289063 -9.09765625 40.4765625 C-24.51664355 41.16049984 -24.51664355 41.16049984 -29.28515625 36.85546875 C-30.9453125 34.95703125 -30.9453125 34.95703125 -32.22265625 33.23046875 C-32.88265625 32.57046875 -33.54265625 31.91046875 -34.22265625 31.23046875 C-33.89244797 27.97136672 -32.70592613 26.23609049 -30.34375 24.03515625 C-25.68917813 20.25487785 -21.08266709 20.33961773 -15.28515625 20.35546875 C-14.31513672 20.33484375 -13.34511719 20.31421875 -12.34570312 20.29296875 C-9.97048714 20.24616646 -7.59823586 20.22599917 -5.22265625 20.23046875 C-5.24585938 18.95429687 -5.2690625 17.678125 -5.29296875 16.36328125 C-5.31172454 14.69401625 -5.32992494 13.02474495 -5.34765625 11.35546875 C-5.36441406 10.51371094 -5.38117188 9.67195313 -5.3984375 8.8046875 C-5.40488281 7.99902344 -5.41132813 7.19335938 -5.41796875 6.36328125 C-5.42844238 5.61965332 -5.43891602 4.87602539 -5.44970703 4.10986328 C-5.01226934 0.48900804 -3.38740407 0.24225072 0 0 Z " fill="#293045" transform="translate(213.22265625,23.76953125)"/>
<path d="M0 0 C4.22053117 3.55341495 7.69962108 6.80980075 9.484375 12.1640625 C9.5208626 13.83032972 9.52637846 15.4979252 9.484375 17.1640625 C6.56671609 17.27212394 3.65306375 17.35139127 0.734375 17.4140625 C-0.090625 17.44757812 -0.915625 17.48109375 -1.765625 17.515625 C-7.96296501 17.6155821 -7.96296501 17.6155821 -10.90625 15.2109375 C-11.43734375 14.53546875 -11.9684375 13.86 -12.515625 13.1640625 C-16.98988832 11.67264139 -20.83476523 11.42135702 -25.203125 13.3515625 C-27.77154456 15.3646481 -29.59656699 17.53424226 -31.515625 20.1640625 C-33.45361021 19.85458579 -35.39099926 19.54137416 -37.328125 19.2265625 C-38.94654297 18.96552734 -38.94654297 18.96552734 -40.59765625 18.69921875 C-43.515625 18.1640625 -43.515625 18.1640625 -46.515625 17.1640625 C-46.26149063 11.33167865 -45.98670771 7.30799282 -41.515625 3.1640625 C-28.89568066 -6.88352385 -13.77466239 -10.05293684 0 0 Z " fill="#232C3E" transform="translate(159.515625,29.8359375)"/>
<path d="M0 0 C4.3050091 -0.02483806 8.60997951 -0.04292512 12.91503906 -0.05493164 C14.37761157 -0.05994045 15.84017911 -0.06674938 17.30273438 -0.07543945 C19.41277291 -0.08765698 21.52274487 -0.09326295 23.6328125 -0.09765625 C24.90012207 -0.10289307 26.16743164 -0.10812988 27.47314453 -0.11352539 C30.747196 -0.00813747 33.78889152 0.37549774 37 1 C37.73681295 7.65860596 37.20033155 11.84956715 33.09375 17.2109375 C25.37178078 23.80918732 17.633342 23.56748371 7.97998047 23.41162109 C5.60992046 23.37476551 3.24141244 23.37060472 0.87109375 23.37109375 C-0.63543024 23.36127359 -2.14194365 23.34962142 -3.6484375 23.3359375 C-4.35672699 23.33371185 -5.06501648 23.33148621 -5.79476929 23.32919312 C-10.76772182 23.23227818 -10.76772182 23.23227818 -13 21 C-13.265625 18.03125 -13.265625 18.03125 -13.25 14.5 C-13.25515625 13.3346875 -13.2603125 12.169375 -13.265625 10.96875 C-13 8 -13 8 -11 6 C-8.56255103 5.82511746 -6.2406392 5.76822595 -3.8046875 5.8046875 C-3.09724396 5.8075174 -2.38980042 5.81034729 -1.66091919 5.81326294 C0.6012251 5.82446863 2.86297515 5.84957321 5.125 5.875 C6.65754637 5.88502933 8.19009894 5.89415526 9.72265625 5.90234375 C13.48192301 5.92440914 17.24089464 5.95894104 21 6 C20.505 4.02 20.505 4.02 20 2 C13.4 1.67 6.8 1.34 0 1 C0 0.67 0 0.34 0 0 Z " fill="#21293D" transform="translate(348,61)"/>
<path d="M0 0 C0.84525742 0.00142502 1.69051483 0.00285004 2.56138611 0.00431824 C3.51900345 0.00124161 4.47662079 -0.00183502 5.46325684 -0.00500488 C6.49973862 0.00218063 7.5362204 0.00936615 8.60411072 0.01676941 C9.66431931 0.01722763 10.72452789 0.01768585 11.81686401 0.01815796 C14.06049212 0.02118245 16.30411809 0.0290746 18.54771423 0.04142761 C21.99562456 0.05968083 25.44326651 0.06193737 28.89122009 0.06169128 C31.06635264 0.0666064 33.24148336 0.07243469 35.41661072 0.07926941 C36.45511673 0.08038223 37.49362274 0.08149506 38.56359863 0.0826416 C39.51806381 0.08902145 40.47252899 0.09540131 41.45591736 0.10197449 C42.30037918 0.10578629 43.144841 0.10959808 44.01489258 0.11352539 C45.94395447 0.24723816 45.94395447 0.24723816 46.94395447 1.24723816 C47.01709013 3.77773218 47.03642974 6.28028653 47.00645447 8.80973816 C47.00194275 9.52065613 46.99743103 10.2315741 46.99278259 10.96403503 C46.98096311 12.72513829 46.9630271 14.48619852 46.94395447 16.24723816 C44.56323665 17.43759707 43.09078067 17.38021962 40.43418884 17.39250183 C39.49981995 17.39888168 38.56545105 17.40526154 37.60276794 17.41183472 C36.591297 17.41294754 35.57982605 17.41406036 34.53770447 17.41520691 C33.5020636 17.41853531 32.46642273 17.42186371 31.3993988 17.42529297 C29.20706121 17.43036152 27.01471588 17.43270132 24.82237244 17.43254089 C21.45782359 17.43472914 18.09360158 17.45289058 14.72911072 17.47184753 C12.60280976 17.47478104 10.47650724 17.47676612 8.35020447 17.47770691 C6.83299805 17.48848518 6.83299805 17.48848518 5.28514099 17.4994812 C4.35077209 17.49640457 3.4164032 17.49332794 2.45372009 17.49015808 C1.62924377 17.4915831 0.80476746 17.49300812 -0.04469299 17.49447632 C-2.05604553 17.24723816 -2.05604553 17.24723816 -4.05604553 15.24723816 C-4.32167053 12.27848816 -4.32167053 12.27848816 -4.30604553 8.74723816 C-4.31120178 7.58192566 -4.31635803 6.41661316 -4.32167053 5.21598816 C-4.01709086 1.81186236 -3.55680108 0.42770305 0 0 Z " fill="#2E3748" transform="translate(391.05604553222656,23.752761840820313)"/>
<path d="M0 0 C1.43653931 -0.00472824 1.43653931 -0.00472824 2.90209961 -0.009552 C3.94374268 -0.00752777 4.98538574 -0.00550354 6.05859375 -0.00341797 C7.12021729 -0.00437469 8.18184082 -0.00533142 9.27563477 -0.00631714 C11.52522847 -0.00699911 13.77482412 -0.00514366 16.02441406 -0.00097656 C19.48116446 0.00437143 22.93778492 -0.00092101 26.39453125 -0.00732422 C28.57421904 -0.00666344 30.75390675 -0.00538228 32.93359375 -0.00341797 C34.49605835 -0.00645432 34.49605835 -0.00645432 36.09008789 -0.009552 C37.04778076 -0.00639984 38.00547363 -0.00324768 38.9921875 0 C39.83966553 0.00079559 40.68714355 0.00159119 41.56030273 0.00241089 C43.49609375 0.12939453 43.49609375 0.12939453 44.49609375 1.12939453 C44.59584407 3.64075558 44.63491558 6.11842868 44.62109375 8.62939453 C44.62689453 9.68320312 44.62689453 9.68320312 44.6328125 10.75830078 C44.62270753 16.00278075 44.62270753 16.00278075 43.49609375 17.12939453 C41.99739327 17.22770599 40.49410836 17.25737909 38.9921875 17.25878906 C37.55564819 17.2635173 37.55564819 17.2635173 36.09008789 17.26834106 C35.04844482 17.26631683 34.00680176 17.2642926 32.93359375 17.26220703 C31.87197021 17.26316376 30.81034668 17.26412048 29.71655273 17.2651062 C27.46695903 17.26578817 25.21736338 17.26393272 22.96777344 17.25976562 C19.51102304 17.25441763 16.05440258 17.25971007 12.59765625 17.26611328 C10.41796846 17.2654525 8.23828075 17.26417135 6.05859375 17.26220703 C5.01695068 17.26423126 3.97530762 17.26625549 2.90209961 17.26834106 C1.94440674 17.2651889 0.98671387 17.26203674 0 17.25878906 C-0.84747803 17.25799347 -1.69495605 17.25719788 -2.56811523 17.25637817 C-4.50390625 17.12939453 -4.50390625 17.12939453 -5.50390625 16.12939453 C-5.60365657 13.61803349 -5.64272808 11.14036038 -5.62890625 8.62939453 C-5.63277344 7.92685547 -5.63664063 7.22431641 -5.640625 6.50048828 C-5.62811015 0.00528354 -5.62811015 0.00528354 0 0 Z " fill="#283042" transform="translate(13.50390625,23.87060546875)"/>
<path d="M0 0 C1.34644592 -0.00472824 1.34644592 -0.00472824 2.72009277 -0.009552 C4.18412537 -0.00651566 4.18412537 -0.00651566 5.67773438 -0.00341797 C6.67276978 -0.00437469 7.66780518 -0.00533142 8.69299316 -0.00631714 C10.80135155 -0.00699907 12.90971203 -0.0051439 15.01806641 -0.00097656 C18.25753465 0.0043715 21.49686423 -0.00092114 24.73632812 -0.00732422 C26.77929718 -0.00666344 28.82226615 -0.00538228 30.86523438 -0.00341797 C31.8412561 -0.0054422 32.81727783 -0.00746643 33.82287598 -0.009552 C34.72050659 -0.00639984 35.61813721 -0.00324768 36.54296875 0 C37.73424377 0.00119339 37.73424377 0.00119339 38.94958496 0.00241089 C40.77148438 0.12939453 40.77148438 0.12939453 41.77148438 1.12939453 C41.8712347 3.64075558 41.91030621 6.11842868 41.89648438 8.62939453 C41.90228516 9.68320313 41.90228516 9.68320313 41.90820312 10.75830078 C41.89809815 16.00278075 41.89809815 16.00278075 40.77148438 17.12939453 C39.36473218 17.22744304 37.95313302 17.25737639 36.54296875 17.25878906 C35.19652283 17.2635173 35.19652283 17.2635173 33.82287598 17.26834106 C32.35884338 17.26530472 32.35884338 17.26530472 30.86523438 17.26220703 C29.37268127 17.26364212 29.37268127 17.26364212 27.84997559 17.2651062 C25.7416172 17.26578813 23.63325672 17.26393297 21.52490234 17.25976562 C18.2854341 17.25441756 15.04610452 17.25971021 11.80664062 17.26611328 C9.76367157 17.2654525 7.7207026 17.26417134 5.67773438 17.26220703 C4.70171265 17.26423126 3.72569092 17.26625549 2.72009277 17.26834106 C1.82246216 17.2651889 0.92483154 17.26203674 0 17.25878906 C-0.79418335 17.25799347 -1.5883667 17.25719788 -2.40661621 17.25637817 C-4.22851562 17.12939453 -4.22851562 17.12939453 -5.22851562 16.12939453 C-5.32826595 13.61803349 -5.36733746 11.14036038 -5.35351562 8.62939453 C-5.35738281 7.92685547 -5.36125 7.22431641 -5.36523438 6.50048828 C-5.35271968 0.00536222 -5.35271968 0.00536222 0 0 Z " fill="#20283A" transform="translate(67.228515625,66.87060546875)"/>
<path d="M0 0 C1.34644592 -0.00472824 1.34644592 -0.00472824 2.72009277 -0.009552 C4.18412537 -0.00651566 4.18412537 -0.00651566 5.67773438 -0.00341797 C6.67276978 -0.00437469 7.66780518 -0.00533142 8.69299316 -0.00631714 C10.80135155 -0.00699907 12.90971203 -0.0051439 15.01806641 -0.00097656 C18.25753465 0.0043715 21.49686423 -0.00092114 24.73632812 -0.00732422 C26.77929718 -0.00666344 28.82226615 -0.00538228 30.86523438 -0.00341797 C31.8412561 -0.0054422 32.81727783 -0.00746643 33.82287598 -0.009552 C34.72050659 -0.00639984 35.61813721 -0.00324768 36.54296875 0 C37.73424377 0.00119339 37.73424377 0.00119339 38.94958496 0.00241089 C40.77148438 0.12939453 40.77148438 0.12939453 41.77148438 1.12939453 C41.8712347 3.64075558 41.91030621 6.11842868 41.89648438 8.62939453 C41.90228516 9.68320312 41.90228516 9.68320312 41.90820312 10.75830078 C41.89809815 16.00278075 41.89809815 16.00278075 40.77148438 17.12939453 C39.36473218 17.22744304 37.95313302 17.25737639 36.54296875 17.25878906 C35.19652283 17.2635173 35.19652283 17.2635173 33.82287598 17.26834106 C32.35884338 17.26530472 32.35884338 17.26530472 30.86523438 17.26220703 C29.37268127 17.26364212 29.37268127 17.26364212 27.84997559 17.2651062 C25.7416172 17.26578813 23.63325672 17.26393297 21.52490234 17.25976562 C18.2854341 17.25441756 15.04610452 17.25971021 11.80664062 17.26611328 C9.76367157 17.2654525 7.7207026 17.26417134 5.67773438 17.26220703 C4.70171265 17.26423126 3.72569092 17.26625549 2.72009277 17.26834106 C1.82246216 17.2651889 0.92483154 17.26203674 0 17.25878906 C-0.79418335 17.25799347 -1.5883667 17.25719788 -2.40661621 17.25637817 C-4.22851562 17.12939453 -4.22851562 17.12939453 -5.22851562 16.12939453 C-5.32826595 13.61803349 -5.36733746 11.14036038 -5.35351562 8.62939453 C-5.35738281 7.92685547 -5.36125 7.22431641 -5.36523438 6.50048828 C-5.35271968 0.00536222 -5.35271968 0.00536222 0 0 Z " fill="#252D3F" transform="translate(67.228515625,23.87060546875)"/>
<path d="M0 0 C1.34644592 -0.00472824 1.34644592 -0.00472824 2.72009277 -0.009552 C4.18412537 -0.00651566 4.18412537 -0.00651566 5.67773438 -0.00341797 C6.67276978 -0.00437469 7.66780518 -0.00533142 8.69299316 -0.00631714 C10.80135155 -0.00699907 12.90971203 -0.0051439 15.01806641 -0.00097656 C18.25753465 0.0043715 21.49686423 -0.00092114 24.73632812 -0.00732422 C26.77929718 -0.00666344 28.82226615 -0.00538228 30.86523438 -0.00341797 C31.8412561 -0.0054422 32.81727783 -0.00746643 33.82287598 -0.009552 C34.72050659 -0.00639984 35.61813721 -0.00324768 36.54296875 0 C37.73424377 0.00119339 37.73424377 0.00119339 38.94958496 0.00241089 C40.77148438 0.12939453 40.77148438 0.12939453 41.77148438 1.12939453 C41.897056 3.43932835 41.94724166 5.75357989 41.95898438 8.06689453 C41.97316406 9.33404297 41.98734375 10.60119141 42.00195312 11.90673828 C41.77148438 15.12939453 41.77148438 15.12939453 39.77148438 17.12939453 C37.86729431 17.37663269 37.86729431 17.37663269 35.52124023 17.37231445 C34.20493874 17.3769294 34.20493874 17.3769294 32.86204529 17.38163757 C31.91305862 17.37445206 30.96407196 17.36726654 29.98632812 17.35986328 C29.01490372 17.35940506 28.04347931 17.35894684 27.0426178 17.35847473 C24.98730245 17.35545077 22.93198942 17.34756019 20.87670898 17.33520508 C17.71850533 17.31694957 14.56059465 17.31469534 11.40234375 17.31494141 C9.40950266 17.31002635 7.41666356 17.30419808 5.42382812 17.29736328 C4.47281723 17.29625046 3.52180634 17.29513763 2.54197693 17.29399109 C1.66759476 17.28761124 0.79321259 17.28123138 -0.10766602 17.2746582 C-1.26776939 17.26894051 -1.26776939 17.26894051 -2.4513092 17.2631073 C-4.22851562 17.12939453 -4.22851562 17.12939453 -5.22851562 16.12939453 C-5.32826595 13.61803349 -5.36733746 11.14036038 -5.35351562 8.62939453 C-5.35738281 7.92685547 -5.36125 7.22431641 -5.36523438 6.50048828 C-5.35271968 0.00536222 -5.35271968 0.00536222 0 0 Z " fill="#303547" transform="translate(290.228515625,23.87060546875)"/>
<path d="M0 0 C1.31157326 -0.00956978 1.31157326 -0.00956978 2.64964294 -0.01933289 C4.07615929 -0.02100212 4.07615929 -0.02100212 5.53149414 -0.02270508 C6.98719566 -0.02769768 6.98719566 -0.02769768 8.4723053 -0.03279114 C10.52938359 -0.03786463 12.58647015 -0.04019933 14.64355469 -0.04003906 C17.79969783 -0.04222459 20.9554911 -0.06037324 24.11157227 -0.0793457 C26.10571169 -0.08227966 28.09985278 -0.08426444 30.09399414 -0.08520508 C31.0429808 -0.09239059 31.99196747 -0.09957611 32.9697113 -0.10697937 C33.84724564 -0.10390274 34.72477997 -0.10082611 35.62890625 -0.09765625 C36.4031041 -0.09908127 37.17730194 -0.10050629 37.97496033 -0.10197449 C39.87915039 0.14526367 39.87915039 0.14526367 41.87915039 2.14526367 C42.10961914 5.11401367 42.10961914 5.11401367 42.06665039 8.64526367 C42.06020508 9.81057617 42.05375977 10.97588867 42.04711914 12.17651367 C41.87915039 15.14526367 41.87915039 15.14526367 40.87915039 17.14526367 C34.48877808 17.17053429 28.09841856 17.18809684 21.70800781 17.20019531 C19.53222166 17.20523675 17.35643892 17.21206974 15.18066406 17.22070312 C12.06061972 17.23277705 8.94062001 17.23849372 5.82055664 17.24291992 C4.35181847 17.25066185 4.35181847 17.25066185 2.85340881 17.25856018 C1.95255051 17.25863571 1.0516922 17.25871124 0.12353516 17.25878906 C-1.07226418 17.26211998 -1.07226418 17.26211998 -2.29222107 17.26551819 C-4.12084961 17.14526367 -4.12084961 17.14526367 -5.12084961 16.14526367 C-5.22059993 13.63390263 -5.25967144 11.15622953 -5.24584961 8.64526367 C-5.2497168 7.94272461 -5.25358398 7.24018555 -5.25756836 6.51635742 C-5.24506257 0.02585087 -5.24506257 0.02585087 0 0 Z " fill="#242C3E" transform="translate(290.120849609375,66.854736328125)"/>
<path d="M0 0 C1 2 1 2 0 9 C5.61 9 11.22 9 17 9 C17 9.66 17 10.32 17 11 C17.85380249 10.9685791 17.85380249 10.9685791 18.72485352 10.93652344 C21.33721816 10.85269006 23.94929884 10.80113182 26.5625 10.75 C27.90538086 10.69972656 27.90538086 10.69972656 29.27539062 10.6484375 C35.44557031 10.55803194 38.95227809 11.40201545 44 15 C48.43187754 19.55165801 50.10280276 24.08208372 50.125 30.375 C50.08375 31.57125 50.0425 32.7675 50 34 C49.67 34 49.34 34 49 34 C49 32.02 49 30.04 49 28 C43.39 28 37.78 28 32 28 C32.495 30.475 32.495 30.475 33 33 C32.01 32.505 32.01 32.505 31 32 C31 31.34 31 30.68 31 30 C30.15405273 30.00169189 30.15405273 30.00169189 29.29101562 30.00341797 C26.69284931 29.99118254 24.09752346 29.93337131 21.5 29.875 C20.613125 29.87757812 19.72625 29.88015625 18.8125 29.8828125 C11.97022554 29.68156913 7.88452174 27.80644011 3 23 C-1.31315272 17.75596197 -2.29714191 11.71540724 -2 5 C-1.0078125 2.1640625 -1.0078125 2.1640625 0 0 Z " fill="#894CA2" transform="translate(336,34)"/>
<path d="M0 0 C1.25361328 0.00966797 2.50722656 0.01933594 3.79882812 0.02929688 C5.10916016 0.05443359 6.41949219 0.07957031 7.76953125 0.10546875 C9.10480288 0.12051908 10.44009062 0.13420688 11.77539062 0.14648438 C15.04467701 0.18189181 18.31315218 0.23127985 21.58203125 0.29296875 C23.0682302 3.26536666 22.71380134 5.98916453 22.70703125 9.29296875 C22.71089844 11.18015625 22.71089844 11.18015625 22.71484375 13.10546875 C22.58203125 16.29296875 22.58203125 16.29296875 21.58203125 18.29296875 C13.91695017 18.6685807 6.25088251 19.00400856 -1.41796875 19.29296875 C-2.66199463 19.3403418 -2.66199463 19.3403418 -3.93115234 19.38867188 C-6.00953503 19.45907963 -8.0887927 19.50224052 -10.16796875 19.54296875 C-11.89273437 19.58164063 -11.89273437 19.58164063 -13.65234375 19.62109375 C-16.41796875 19.29296875 -16.41796875 19.29296875 -18.296875 18.0078125 C-20.10889824 15.23611144 -19.59957447 12.50133654 -19.41796875 9.29296875 C-15.78796875 9.29296875 -12.15796875 9.29296875 -8.41796875 9.29296875 C-8.64484375 8.36484375 -8.87171875 7.43671875 -9.10546875 6.48046875 C-9.41796875 3.29296875 -9.41796875 3.29296875 -8.33862305 1.61206055 C-5.53932531 -0.31047736 -3.36991625 -0.04574547 0 0 Z " fill="#F2DEF7" transform="translate(304.41796875,44.70703125)"/>
<path d="M0 0 C5.61 0 11.22 0 17 0 C17.02290785 5.39352589 17.04283526 10.78688421 17.05493164 16.18041992 C17.05997231 18.01668875 17.06680477 19.85295354 17.07543945 21.68920898 C17.08751672 24.32276401 17.09323081 26.95626616 17.09765625 29.58984375 C17.10281754 30.41588608 17.10797882 31.24192841 17.11329651 32.09300232 C17.11349205 34.06236368 17.06204152 36.03161614 17 38 C15.24440058 39.75559942 12.96417558 39.13221919 10.62890625 39.13671875 C9.92636719 39.13285156 9.22382813 39.12898438 8.5 39.125 C7.79746094 39.12886719 7.09492188 39.13273437 6.37109375 39.13671875 C1.12661378 39.12661378 1.12661378 39.12661378 0 38 C-0.08861992 35.1883662 -0.11522355 32.40141745 -0.09765625 29.58984375 C-0.0962413 28.74780899 -0.09482635 27.90577423 -0.09336853 27.03822327 C-0.08775263 24.33794665 -0.07519748 21.63775172 -0.0625 18.9375 C-0.05748705 17.11132932 -0.05292379 15.28515734 -0.04882812 13.45898438 C-0.03862716 8.97259915 -0.01905499 4.48639145 0 0 Z " fill="#131C30" transform="translate(404,45)"/>
<path d="M0 0 C1.48831242 0.00667405 2.97660807 0.01863442 4.46484375 0.03515625 C5.22345703 0.03966797 5.98207031 0.04417969 6.76367188 0.04882812 C8.64326246 0.06064945 10.52281274 0.07858547 12.40234375 0.09765625 C12.42699224 5.49112613 12.44517906 10.8845635 12.45727539 16.27807617 C12.46231606 18.114345 12.46914852 19.95060979 12.4777832 21.78686523 C12.48986047 24.42042026 12.49557456 27.05392241 12.5 29.6875 C12.50516129 30.51354233 12.51032257 31.33958466 12.51564026 32.19065857 C12.5158358 34.16001993 12.46438527 36.12927239 12.40234375 38.09765625 C10.46892428 40.03107572 7.02755254 39.27214758 4.46484375 39.28515625 C3.19769531 39.29933594 1.93054687 39.31351563 0.625 39.328125 C-2.59765625 39.09765625 -2.59765625 39.09765625 -4.59765625 37.09765625 C-4.78511135 34.38454976 -4.85331031 31.7753654 -4.828125 29.0625 C-4.82766678 28.26864395 -4.82720856 27.4747879 -4.82673645 26.65687561 C-4.8237139 24.97818508 -4.8158275 23.29949735 -4.8034668 21.62084961 C-4.7852051 19.04205467 -4.78295712 16.46361848 -4.78320312 13.88476562 C-4.77828821 12.25650729 -4.77246001 10.62825141 -4.765625 9 C-4.76451218 8.22397934 -4.76339935 7.44795868 -4.76225281 6.64842224 C-4.70400528 0.12768744 -4.70400528 0.12768744 0 0 Z " fill="#182235" transform="translate(28.59765625,44.90234375)"/>
<path d="M0 0 C1.15435547 0.00064453 2.30871094 0.00128906 3.49804688 0.00195312 C4.70396484 0.01806641 5.90988281 0.03417969 7.15234375 0.05078125 C8.96702148 0.04594727 8.96702148 0.04594727 10.81835938 0.04101562 C19.8229445 0.096382 19.8229445 0.096382 22.08984375 2.36328125 C22.35546875 5.55078125 22.35546875 5.55078125 22.33984375 9.36328125 C22.34757812 11.25046875 22.34757812 11.25046875 22.35546875 13.17578125 C22.08984375 16.36328125 22.08984375 16.36328125 20.08984375 18.36328125 C17.16061345 18.55096778 14.32755978 18.61881766 11.3984375 18.59375 C10.53799332 18.59329178 9.67754913 18.59283356 8.79103088 18.59236145 C6.97110618 18.5893383 5.15118408 18.58145013 3.33129883 18.5690918 C0.53522651 18.55083273 -2.26051491 18.5485821 -5.05664062 18.54882812 C-6.82161747 18.54391315 -8.58659205 18.53808492 -10.3515625 18.53125 C-11.1932045 18.53013718 -12.0348465 18.52902435 -12.9019928 18.52787781 C-18.7941092 18.4793283 -18.7941092 18.4793283 -19.91015625 17.36328125 C-20.03515625 13.86328125 -20.03515625 13.86328125 -19.91015625 10.36328125 C-18.91015625 9.36328125 -18.91015625 9.36328125 -16.40625 9.265625 C-14.89224609 9.28302734 -14.89224609 9.28302734 -13.34765625 9.30078125 C-12.33574219 9.30980469 -11.32382813 9.31882812 -10.28125 9.328125 C-9.10755859 9.34552734 -9.10755859 9.34552734 -7.91015625 9.36328125 C-8.13703125 8.43515625 -8.36390625 7.50703125 -8.59765625 6.55078125 C-8.91015625 3.36328125 -8.91015625 3.36328125 -7.79907227 1.68676758 C-5.14584741 -0.17223875 -3.22073401 -0.00905044 0 0 Z " fill="#46678C" transform="translate(81.91015625,44.63671875)"/>
<path d="M0 0 C4.06225821 -0.11638426 8.1240863 -0.18731373 12.1875 -0.25 C13.33798828 -0.28351562 14.48847656 -0.31703125 15.67382812 -0.3515625 C16.78564453 -0.36445312 17.89746094 -0.37734375 19.04296875 -0.390625 C20.06414795 -0.41157227 21.08532715 -0.43251953 22.13745117 -0.45410156 C25.74800079 0.1186594 27.42440217 1.45720668 30 4 C30 4.66 30 5.32 30 6 C30.66 6 31.32 6 32 6 C32 4.35 32 2.7 32 1 C33.32 1 34.64 1 36 1 C36 10.24 36 19.48 36 29 C26 29 26 29 23.58203125 27.33984375 C22.70611328 26.15068359 22.70611328 26.15068359 21.8125 24.9375 C21.09578125 24.03644531 20.3790625 23.13539062 19.640625 22.20703125 C19.23908203 21.70123535 18.83753906 21.19543945 18.42382812 20.67431641 C14.93491736 16.57161579 10.91880423 12.92134346 7.05200195 9.17944336 C6.42769287 8.56593018 5.80338379 7.95241699 5.16015625 7.3203125 C4.59949463 6.77648926 4.03883301 6.23266602 3.46118164 5.67236328 C1.90405863 3.89019241 0.9637239 2.15261969 0 0 Z " fill="#1E2539" transform="translate(244,55)"/>
<path d="M0 0 C5.84054721 0.06549563 8.70448287 2.69395019 12.72198486 6.71566772 C13.68403568 7.71480891 14.63746473 8.72231669 15.58251953 9.73754883 C17.01864439 11.28000825 18.48662535 12.78504874 19.96484375 14.28710938 C24.61273949 19.0733812 28.74741324 23.67461445 31.6484375 29.72265625 C24.45375617 30.22170929 17.78130398 29.59974574 10.7734375 28.03515625 C10.0606665 27.8865918 9.34789551 27.73802734 8.61352539 27.58496094 C2.26041269 26.06241874 -1.66696719 23.24954922 -5.3515625 17.72265625 C-5.52013104 14.97413197 -5.5848759 12.34163766 -5.5390625 9.59765625 C-5.53841797 8.85644531 -5.53777344 8.11523438 -5.53710938 7.3515625 C-5.48126817 0.56375348 -5.48126817 0.56375348 0 0 Z " fill="#2D3246" transform="translate(234.3515625,23.27734375)"/>
<path d="M0 0 C3.58072917 0.06510417 7.16145833 0.13020833 10.7421875 0.1953125 C10.7421875 6.4653125 10.7421875 12.7353125 10.7421875 19.1953125 C-0.70498262 25.69617454 -12.09911453 28.07255903 -25.2578125 27.1953125 C-26.2478125 26.5353125 -27.2378125 25.8753125 -28.2578125 25.1953125 C-27.5978125 24.8653125 -26.9378125 24.5353125 -26.2578125 24.1953125 C-26.2578125 23.2053125 -26.2578125 22.2153125 -26.2578125 21.1953125 C-15.8628125 20.7003125 -15.8628125 20.7003125 -5.2578125 20.1953125 C-5.33686994 14.36138561 -5.33686994 14.36138561 -5.43798828 8.52783203 C-5.4429834 7.80192871 -5.44797852 7.07602539 -5.453125 6.328125 C-5.46359863 5.58449707 -5.47407227 4.84086914 -5.48486328 4.07470703 C-5.04405825 0.42597895 -3.41217679 0.20456695 0 0 Z " fill="#242C3F" transform="translate(213.2578125,23.8046875)"/>
<path d="M0 0 C9.59694571 0 9.59694571 0 13.6875 3.95458984 C16.32431776 8.06382705 15.75656972 12.59955862 15.5 17.3125 C15.46519531 18.83327148 15.46519531 18.83327148 15.4296875 20.38476562 C15.21149284 27.78850716 15.21149284 27.78850716 14 29 C9.38 29 4.76 29 0 29 C0 19.43 0 9.86 0 0 Z " fill="#1F2439" transform="translate(230,55)"/>
<path d="M0 0 C3.1875 -0.3984375 3.1875 -0.3984375 7 -0.375 C8.8871875 -0.38660156 8.8871875 -0.38660156 10.8125 -0.3984375 C11.864375 -0.26695313 12.91625 -0.13546875 14 0 C16.9664955 4.44974325 16.30711702 8.18211964 15.875 13.39453125 C14.45699031 19.23749082 10.89508477 22.68450561 6 26 C3.89453125 26.85546875 3.89453125 26.85546875 2 27 C-1 25 -1 25 -1.46411133 22.80102539 C-1.5030249 21.90891357 -1.54193848 21.01680176 -1.58203125 20.09765625 C-1.62650391 19.12505859 -1.67097656 18.15246094 -1.71679688 17.15039062 C-1.74837891 16.13138672 -1.77996094 15.11238281 -1.8125 14.0625 C-1.86341797 13.04736328 -1.91433594 12.03222656 -1.96679688 10.98632812 C-2.26322191 3.39483286 -2.26322191 3.39483286 0 0 Z " fill="#2E3646" transform="translate(173,24)"/>
<path d="M0 0 C5.43695129 0.3563716 8.4890161 3.20828845 12.16796875 6.97265625 C15.6828029 12.78075107 14.82557951 19.45767179 14 26 C13 27 13 27 9.875 27.1328125 C8.59625 27.13023438 7.3175 27.12765625 6 27.125 C4.72125 27.12757812 3.4425 27.13015625 2.125 27.1328125 C-1 27 -1 27 -2 26 C-2.25256877 22.02724185 -2.18522451 18.04233825 -2.1875 14.0625 C-2.19974609 12.93908203 -2.21199219 11.81566406 -2.22460938 10.65820312 C-2.22654297 9.58634766 -2.22847656 8.51449219 -2.23046875 7.41015625 C-2.23457764 6.42152588 -2.23868652 5.43289551 -2.24291992 4.41430664 C-2 2 -2 2 0 0 Z " fill="#272F40" transform="translate(174,57)"/>
<path d="M0 0 C3.61328125 0.03255208 7.2265625 0.06510417 10.83984375 0.09765625 C10.83984375 8.01765625 10.83984375 15.93765625 10.83984375 24.09765625 C0.71484375 24.09765625 0.71484375 24.09765625 -4.16015625 22.09765625 C-4.18903439 18.61850684 -4.20691312 15.13938794 -4.22265625 11.66015625 C-4.23103516 10.66693359 -4.23941406 9.67371094 -4.24804688 8.65039062 C-4.25126953 7.70615234 -4.25449219 6.76191406 -4.2578125 5.7890625 C-4.26304932 4.91451416 -4.26828613 4.03996582 -4.27368164 3.13891602 C-4.08521174 -0.24989437 -3.47516227 0.10739068 0 0 Z " fill="#222A3D" transform="translate(269.16015625,23.90234375)"/>
<path d="M0 0 C0.33 0 0.66 0 1 0 C1 11.22 1 22.44 1 34 C0.67 33.34 0.34 32.68 0 32 C-3.85207563 30.47312215 -8.11414845 30.83800284 -12.1953125 30.83203125 C-12.98396698 30.82870285 -13.77262146 30.82537445 -14.58517456 30.82194519 C-16.24769509 30.81689341 -17.91022571 30.81453632 -19.57275391 30.81469727 C-22.12288887 30.81250182 -24.67259726 30.7943036 -27.22265625 30.77539062 C-28.83854019 30.77245819 -30.45442618 30.77047239 -32.0703125 30.76953125 C-32.83489777 30.76234573 -33.59948303 30.75516022 -34.38723755 30.74775696 C-38.65547303 30.61139423 -38.65547303 30.61139423 -42 33 C-43.5625 31.75 -43.5625 31.75 -45 30 C-44.74772222 27.39312964 -44.32198889 26.29341914 -42.37109375 24.515625 C-41.73300781 24.09796875 -41.09492188 23.6803125 -40.4375 23.25 C-39.79683594 22.82203125 -39.15617188 22.3940625 -38.49609375 21.953125 C-38.00238281 21.63859375 -37.50867188 21.3240625 -37 21 C-36.67 22.32 -36.34 23.64 -36 25 C-24.7984674 25.39303623 -13.71171102 24.73576552 -3.85546875 19.0234375 C-2 18 -2 18 0 18 C0 12.06 0 6.12 0 0 Z " fill="#212546" transform="translate(224,25)"/>
<path d="M0 0 C9.11801947 -0.06847788 18.20231738 0.13140869 27.3125 0.5 C28.54162109 0.54769531 29.77074219 0.59539063 31.03710938 0.64453125 C34.02483488 0.76078516 37.01245123 0.87930393 40 1 C40 3.31 40 5.62 40 8 C17.74199757 9.09070884 17.74199757 9.09070884 8.1875 9.1875 C7.02605469 9.20167969 5.86460937 9.21585938 4.66796875 9.23046875 C2 9 2 9 0 7 C-0.125 3.375 -0.125 3.375 0 0 Z " fill="#8E71A7" transform="translate(286,55)"/>
<path d="M0 0 C5.61 0 11.22 0 17 0 C17.02290785 5.39352589 17.04283526 10.78688421 17.05493164 16.18041992 C17.05997231 18.01668875 17.06680477 19.85295354 17.07543945 21.68920898 C17.08751672 24.32276401 17.09323081 26.95626616 17.09765625 29.58984375 C17.10281754 30.41588608 17.10797882 31.24192841 17.11329651 32.09300232 C17.11349205 34.06236368 17.06204152 36.03161614 17 38 C15.24440058 39.75559942 12.96417558 39.13221919 10.62890625 39.13671875 C9.92636719 39.13285156 9.22382813 39.12898438 8.5 39.125 C7.79746094 39.12886719 7.09492188 39.13273437 6.37109375 39.13671875 C1.12661378 39.12661378 1.12661378 39.12661378 0 38 C-0.08861992 35.1883662 -0.11522355 32.40141745 -0.09765625 29.58984375 C-0.0962413 28.74780899 -0.09482635 27.90577423 -0.09336853 27.03822327 C-0.08775263 24.33794665 -0.07519748 21.63775172 -0.0625 18.9375 C-0.05748705 17.11132932 -0.05292379 15.28515734 -0.04882812 13.45898438 C-0.03862716 8.97259915 -0.01905499 4.48639145 0 0 Z M1 11 C0.97317701 15.31254083 0.95324756 19.62491707 0.9375 23.9375 C0.92912109 25.16919922 0.92074219 26.40089844 0.91210938 27.66992188 C0.90888672 28.83974609 0.90566406 30.00957031 0.90234375 31.21484375 C0.89710693 32.29886475 0.89187012 33.38288574 0.88647461 34.49975586 C0.71573103 36.94049948 0.71573103 36.94049948 2 38 C4.35313555 38.07271741 6.70833668 38.08370868 9.0625 38.0625 C12.4965625 38.0315625 12.4965625 38.0315625 16 38 C16 29.09 16 20.18 16 11 C11.05 11 6.1 11 1 11 Z " fill="#8590A7" transform="translate(404,45)"/>
<path d="M0 0 C5.46263311 -0.04952523 10.92513482 -0.08577896 16.38793945 -0.10986328 C18.24538449 -0.11990615 20.10281379 -0.13354304 21.96020508 -0.15087891 C24.63366591 -0.17520261 27.30691726 -0.18650033 29.98046875 -0.1953125 C31.2213752 -0.21079636 31.2213752 -0.21079636 32.48735046 -0.22659302 C36.73650122 -0.22741549 40.18709235 -0.12278406 44 2 C45.60725635 5.21451269 45.05748185 8.43612536 45 12 C44.67 12 44.34 12 44 12 C44 10.02 44 8.04 44 6 C38.39 6 32.78 6 27 6 C27.33 7.65 27.66 9.3 28 11 C27.34 10.67 26.68 10.34 26 10 C26 9.34 26 8.68 26 8 C25.42556152 7.9906543 24.85112305 7.98130859 24.25927734 7.97167969 C21.63034696 7.91764969 19.00313433 7.83407106 16.375 7.75 C15.01955078 7.72873047 15.01955078 7.72873047 13.63671875 7.70703125 C7.89669149 7.4975412 4.3160408 6.92888764 0 3 C0 2.01 0 1.02 0 0 Z " fill="#685F9D" transform="translate(341,56)"/>
<path d="M0 0 C1.48831242 0.00667405 2.97660807 0.01863442 4.46484375 0.03515625 C5.22345703 0.03966797 5.98207031 0.04417969 6.76367188 0.04882812 C8.64326246 0.06064945 10.52281274 0.07858547 12.40234375 0.09765625 C12.40234375 4.38765625 12.40234375 8.67765625 12.40234375 13.09765625 C7.45234375 12.76765625 2.50234375 12.43765625 -2.59765625 12.09765625 C-2.92765625 20.34765625 -3.25765625 28.59765625 -3.59765625 37.09765625 C-3.92765625 37.09765625 -4.25765625 37.09765625 -4.59765625 37.09765625 C-4.62230635 31.98901729 -4.64049232 26.88041266 -4.65258789 21.77172852 C-4.65762829 20.03246457 -4.66446055 18.29320489 -4.6730957 16.55395508 C-4.68517417 14.05939688 -4.69088733 11.56489452 -4.6953125 9.0703125 C-4.70047379 8.28801773 -4.70563507 7.50572296 -4.71095276 6.69972229 C-4.71114851 4.83198511 -4.65965319 2.96436421 -4.59765625 1.09765625 C-3.59765625 0.09765625 -3.59765625 0.09765625 0 0 Z " fill="#97A9C9" transform="translate(28.59765625,44.90234375)"/>
<path d="M0 0 C0.33 0 0.66 0 1 0 C1.66 3.3 2.32 6.6 3 10 C12.45443394 11.82272002 21.66148774 12.41098066 31.25 12.625 C32.6888226 12.66329936 34.12762521 12.70235739 35.56640625 12.7421875 C39.04408495 12.83684361 42.52191852 12.92133063 46 13 C46.33 12.34 46.66 11.68 47 11 C48.98 13.97 48.98 13.97 51 17 C50.67 17.66 50.34 18.32 50 19 C49.42320496 18.83923477 48.84640991 18.67846954 48.25213623 18.51283264 C46.08683776 18.01977378 44.18076513 17.84501739 41.96582031 17.79467773 C40.79505951 17.7647599 40.79505951 17.7647599 39.60064697 17.73423767 C38.76821472 17.71752518 37.93578247 17.70081268 37.078125 17.68359375 C36.21813904 17.66281265 35.35815308 17.64203156 34.47210693 17.62062073 C31.73148402 17.55536261 28.99076725 17.49635083 26.25 17.4375 C24.3893133 17.39429219 22.52863602 17.35067718 20.66796875 17.30664062 C16.11207477 17.19970558 11.5560866 17.09837149 7 17 C6.67 17.66 6.34 18.32 6 19 C1.25300799 12.88671509 0.1551111 7.67094905 0 0 Z " fill="#D2C1F5" transform="translate(334,39)"/>
<path d="M0 0 C0.93423645 3.01031744 1.04449911 3.86650268 0 7 C5.28 7.66 10.56 8.32 16 9 C16 12.3 16 15.6 16 19 C14.14375 18.690625 14.14375 18.690625 12.25 18.375 C8.76839409 17.92754009 7.04334671 18.15225378 4 20 C2.68 20 1.36 20 0 20 C0 21.65 0 23.3 0 25 C-3.37597344 19.93603983 -3.47567436 14.59486461 -2.390625 8.67578125 C-1.65901769 5.75970496 -0.87469957 2.8761308 0 0 Z " fill="#7DACDB" transform="translate(113,40)"/>
<path d="M0 0 C4.31248609 -0.02886537 8.62494762 -0.04675255 12.9375 -0.0625 C14.16919922 -0.07087891 15.40089844 -0.07925781 16.66992188 -0.08789062 C17.83974609 -0.09111328 19.00957031 -0.09433594 20.21484375 -0.09765625 C21.84087524 -0.10551147 21.84087524 -0.10551147 23.49975586 -0.11352539 C26 0 26 0 27 1 C27 2.98 27 4.96 27 7 C18.09 7 9.18 7 0 7 C-1 3 -1 3 0 0 Z " fill="#47749F" transform="translate(76,45)"/>
<path d="M0 0 C1.084021 0.00523682 2.16804199 0.01047363 3.28491211 0.01586914 C5.03964844 0.02070312 5.03964844 0.02070312 6.82983398 0.02563477 C8.67738281 0.03820313 8.67738281 0.03820313 10.56225586 0.05102539 C12.41560547 0.05779297 12.41560547 0.05779297 14.30639648 0.06469727 C17.37089703 0.07652931 20.43530307 0.09301366 23.49975586 0.11352539 C23.82975586 1.43352539 24.15975586 2.75352539 24.49975586 4.11352539 C19.86110901 4.7129992 15.22111339 5.29817437 10.57788086 5.86108398 C8.74927257 6.08321521 6.92133196 6.31082838 5.09350586 6.53930664 C4.13444336 6.64629883 3.17538086 6.75329102 2.18725586 6.86352539 C1.34549805 6.96149414 0.50374023 7.05946289 -0.36352539 7.16040039 C-2.50024414 7.11352539 -2.50024414 7.11352539 -5.50024414 5.11352539 C-3.09393295 0.14048226 -3.09393295 0.14048226 0 0 Z " fill="#9250A1" transform="translate(300.500244140625,44.886474609375)"/>
<path d="M0 0 C5.23317491 0.40363263 10.46588699 0.81268322 15.69824219 1.22680664 C17.47904929 1.36697779 19.25997455 1.50565601 21.04101562 1.64282227 C23.59798037 1.84000468 26.15447499 2.04251607 28.7109375 2.24609375 C29.50994476 2.3065538 30.30895203 2.36701385 31.13217163 2.42930603 C36.77225659 2.88612829 36.77225659 2.88612829 39 4 C39 4.66 39 5.32 39 6 C26.13 6 13.26 6 0 6 C0 4.02 0 2.04 0 0 Z " fill="#443466" transform="translate(286,56)"/>
<path d="M0 0 C3.3137291 0.63963195 6.62574335 1.28773919 9.9375 1.9375 C10.88302734 2.11990234 11.82855469 2.30230469 12.80273438 2.49023438 C13.70185547 2.66748047 14.60097656 2.84472656 15.52734375 3.02734375 C16.35999756 3.18968506 17.19265137 3.35202637 18.05053711 3.51928711 C20 4 20 4 21 5 C23.33297433 5.04092937 25.66705225 5.04241723 28 5 C28.33 3.68 28.66 2.36 29 1 C30.00287529 2.31030432 31.00222825 3.62330527 32 4.9375 C32.556875 5.66839844 33.11375 6.39929687 33.6875 7.15234375 C35 9 35 9 35 10 C27.80531867 10.49905304 21.13286648 9.87708949 14.125 8.3125 C13.412229 8.16393555 12.69945801 8.01537109 11.96508789 7.86230469 C6.82943312 6.63152988 3.79478256 4.68177179 0 1 C0 0.67 0 0.34 0 0 Z " fill="#45396F" transform="translate(231,43)"/>
<path d="M0 0 C4.18423892 3.50897269 8.19588166 7.08060535 12 11 C10.02 11.99 10.02 11.99 8 13 C7.505 12.525625 7.01 12.05125 6.5 11.5625 C3.34809541 9.34878018 3.34809541 9.34878018 -4 9 C-4 18.24 -4 27.48 -4 37 C-4.33 37 -4.66 37 -5 37 C-5.12358454 32.21290532 -5.21432771 27.42673819 -5.2746582 22.63842773 C-5.29980568 21.0096825 -5.33392878 19.38105015 -5.37719727 17.75268555 C-5.4378455 15.41166366 -5.46620476 13.07213269 -5.48828125 10.73046875 C-5.51408768 10.00224411 -5.5398941 9.27401947 -5.56648254 8.52372742 C-5.56762695 6.46166992 -5.56762695 6.46166992 -5 3 C-2.46948242 1.0168457 -2.46948242 1.0168457 0 0 Z " fill="#EDE0F7" transform="translate(234,46)"/>
<path d="M0 0 C14.85 0 29.7 0 45 0 C45 4.95 45 9.9 45 15 C44.67 15 44.34 15 44 15 C44 10.71 44 6.42 44 2 C30.47 2.33 16.94 2.66 3 3 C2.34 6.96 1.68 10.92 1 15 C0.67 15 0.34 15 0 15 C0 10.05 0 5.1 0 0 Z " fill="#4C515F" transform="translate(63,24)"/>
<path d="M0 0 C1 2 1 2 1 5 C14.365 5.495 14.365 5.495 28 6 C28 4.35 28 2.7 28 1 C28.33 1 28.66 1 29 1 C29 5.62 29 10.24 29 15 C28.67 15 28.34 15 28 15 C28 13.02 28 11.04 28 9 C14.8 9 1.6 9 -12 9 C-12 8.67 -12 8.34 -12 8 C-8.37 8 -4.74 8 -1 8 C-1.20625 7.05125 -1.4125 6.1025 -1.625 5.125 C-1.74875 4.09375 -1.8725 3.0625 -2 2 C-1.34 1.34 -0.68 0.68 0 0 Z " fill="#F1F6FD" transform="translate(75,46)"/>
<path d="M0 0 C4.3050091 -0.02483806 8.60997951 -0.04292512 12.91503906 -0.05493164 C14.37761157 -0.05994045 15.84017911 -0.06674938 17.30273438 -0.07543945 C19.41277291 -0.08765698 21.52274487 -0.09326295 23.6328125 -0.09765625 C25.53377686 -0.10551147 25.53377686 -0.10551147 27.47314453 -0.11352539 C30.747196 -0.00813747 33.78889152 0.37549774 37 1 C37.05395478 2.62463842 37.09277195 4.24978541 37.125 5.875 C37.14820313 6.77992187 37.17140625 7.68484375 37.1953125 8.6171875 C37 11 37 11 35 13 C34.505 11.02 34.505 11.02 34 9 C34.66 9 35.32 9 36 9 C36 8.34 36 7.68 36 7 C35.16855469 6.93941406 34.33710938 6.87882812 33.48046875 6.81640625 C32.39378906 6.73261719 31.30710937 6.64882812 30.1875 6.5625 C29.10855469 6.48128906 28.02960938 6.40007812 26.91796875 6.31640625 C24 6 24 6 21 5 C20.67 4.01 20.34 3.02 20 2 C13.4 1.67 6.8 1.34 0 1 C0 0.67 0 0.34 0 0 Z " fill="#34396F" transform="translate(348,61)"/>
<path d="M0 0 C2.4375 3.0625 2.4375 3.0625 4 6 C3.01 6 2.02 6 1 6 C-1.2323418 6.31136025 -3.46130967 6.64733619 -5.6875 7 C-6.86699219 7.185625 -8.04648438 7.37125 -9.26171875 7.5625 C-10.16535156 7.706875 -11.06898437 7.85125 -12 8 C-11.67 8.99 -11.34 9.98 -11 11 C-11.66 11.66 -12.32 12.32 -13 13 C-15.32590854 9.36576791 -15.16265833 6.22911669 -15 2 C-9.6105516 -0.36379316 -5.85083559 -1.91277317 0 0 Z " fill="#314264" transform="translate(128,58)"/>
<path d="M0 0 C2.31243792 -0.02685412 4.6249627 -0.04632841 6.9375 -0.0625 C8.22527344 -0.07410156 9.51304688 -0.08570313 10.83984375 -0.09765625 C14 0 14 0 15 1 C15.08737645 2.85369611 15.10698153 4.71067541 15.09765625 6.56640625 C15.09443359 7.69111328 15.09121094 8.81582031 15.08789062 9.97460938 C15.07951172 11.15861328 15.07113281 12.34261719 15.0625 13.5625 C15.05798828 14.75037109 15.05347656 15.93824219 15.04882812 17.16210938 C15.03699675 20.10812226 15.02051287 23.05403681 15 26 C14.67 26 14.34 26 14 26 C14 19.07 14 12.14 14 5 C9.38 5 4.76 5 0 5 C0 11.93 0 18.86 0 26 C-0.33 26 -0.66 26 -1 26 C-1.02899599 22.22918278 -1.04679729 18.45839417 -1.0625 14.6875 C-1.07087891 13.61564453 -1.07925781 12.54378906 -1.08789062 11.43945312 C-1.09111328 10.41142578 -1.09433594 9.38339844 -1.09765625 8.32421875 C-1.10289307 7.37635498 -1.10812988 6.42849121 -1.11352539 5.4519043 C-1 3 -1 3 0 0 Z " fill="#273858" transform="translate(26,57)"/>
<path d="M0 0 C5.28 0 10.56 0 16 0 C16 2.31 16 4.62 16 7 C10.72 7 5.44 7 0 7 C0 4.69 0 2.38 0 0 Z " fill="#253E68" transform="translate(25,45)"/>
<path d="M0 0 C7.92 0 15.84 0 24 0 C24.66 1.32 25.32 2.64 26 4 C26.99 4.33 27.98 4.66 29 5 C22.07 5 15.14 5 8 5 C8 4.34 8 3.68 8 3 C7.4225 2.87625 6.845 2.7525 6.25 2.625 C4 2 4 2 0 0 Z " fill="#505394" transform="translate(349,45)"/>
<path d="M0 0 C4.95 0 9.9 0 15 0 C15 2.31 15 4.62 15 7 C10.05 7 5.1 7 0 7 C0 4.69 0 2.38 0 0 Z " fill="#1A2E4B" transform="translate(405,45)"/>
<path d="M0 0 C2.4375 0.75 2.4375 0.75 5 2 C5.66015625 4.078125 5.66015625 4.078125 6 6 C1.80486535 6.05014413 -2.3901018 6.08606394 -6.58544922 6.10986328 C-8.00702968 6.1198044 -9.42859036 6.13336208 -10.85009766 6.15087891 C-28.89538578 6.36737142 -28.89538578 6.36737142 -37 4 C-37.33 3.34 -37.66 2.68 -38 2 C-36.58344207 1.9727585 -35.16672955 1.95349533 -33.75 1.9375 C-32.56664062 1.92009766 -32.56664062 1.92009766 -31.359375 1.90234375 C-29 2 -29 2 -27.23242188 2.5 C-24.41614495 3.13076719 -21.80781147 3.111803 -18.921875 3.09765625 C-17.18164062 3.09282227 -17.18164062 3.09282227 -15.40625 3.08789062 C-14.1996875 3.07951172 -12.993125 3.07113281 -11.75 3.0625 C-10.52796875 3.05798828 -9.3059375 3.05347656 -8.046875 3.04882812 C-5.03120054 3.03704815 -2.01562502 3.02059853 1 3 C0.505 1.515 0.505 1.515 0 0 Z " fill="#9A8FD7" transform="translate(374,46)"/>
<path d="M0 0 C13.53 0 27.06 0 41 0 C41 1.32 41 2.64 41 4 C36.74974029 3.73625432 32.49967431 3.4696153 28.24975586 3.20043945 C26.80774699 3.10949906 25.36569037 3.01931228 23.92358398 2.92993164 C16.26009965 2.45445029 8.62320869 1.94544823 1 1 C1 2.98 1 4.96 1 7 C0.67 7 0.34 7 0 7 C0 4.69 0 2.38 0 0 Z " fill="#7BA6D7" transform="translate(62,55)"/>
<path d="M0 0 C0 3 0 3 -1 5 C0.65 5.33 2.3 5.66 4 6 C4 6.66 4 7.32 4 8 C7.3 8.66 10.6 9.32 14 10 C14.33 9.01 14.66 8.02 15 7 C15.33 7.66 15.66 8.32 16 9 C14.68 10.65 13.36 12.3 12 14 C10.06201479 13.69052329 8.12462574 13.37731166 6.1875 13.0625 C5.10855469 12.88847656 4.02960938 12.71445312 2.91796875 12.53515625 C0 12 0 12 -3 11 C-2.88590407 9.54077307 -2.75834456 8.08259402 -2.625 6.625 C-2.55539063 5.81289063 -2.48578125 5.00078125 -2.4140625 4.1640625 C-2 2 -2 2 0 0 Z " fill="#344E72" transform="translate(116,36)"/>
<path d="M0 0 C4.10403363 -0.08694042 8.20783129 -0.14037149 12.3125 -0.1875 C13.47974609 -0.21263672 14.64699219 -0.23777344 15.84960938 -0.26367188 C16.96787109 -0.27333984 18.08613281 -0.28300781 19.23828125 -0.29296875 C20.26993408 -0.3086792 21.30158691 -0.32438965 22.36450195 -0.34057617 C25 0 25 0 26.86010742 1.51831055 C27.23627197 2.00726807 27.61243652 2.49622559 28 3 C25.0059426 3 22.16291234 2.6968685 19.1875 2.375 C14.61172587 1.97011332 11.24689048 1.99452394 7 4 C8.32 5.65 9.64 7.3 11 9 C10.34 9.66 9.68 10.32 9 11 C7.86874978 9.92319498 6.74525081 8.83824365 5.625 7.75 C4.99851563 7.14671875 4.37203125 6.5434375 3.7265625 5.921875 C2.01775953 4.01976853 1.08805255 2.29283105 0 0 Z " fill="#342E5D" transform="translate(244,55)"/>
<path d="M0 0 C0 2.97 0 5.94 0 9 C-0.33 8.34 -0.66 7.68 -1 7 C-3.8950732 6.0070716 -6.72315644 5.82011478 -9.765625 5.68359375 C-10.65507812 5.64169922 -11.54453125 5.59980469 -12.4609375 5.55664062 C-13.38132813 5.51732422 -14.30171875 5.47800781 -15.25 5.4375 C-16.18585938 5.39431641 -17.12171875 5.35113281 -18.0859375 5.30664062 C-20.39048641 5.2008195 -22.69513839 5.09873443 -25 5 C-25 4.34 -25 3.68 -25 3 C-23.46279297 2.92652344 -23.46279297 2.92652344 -21.89453125 2.8515625 C-20.5338294 2.77648929 -19.17315356 2.70094345 -17.8125 2.625 C-17.13896484 2.5940625 -16.46542969 2.563125 -15.77148438 2.53125 C-10.17509331 2.20365638 -5.56018251 -0.31772471 0 0 Z " fill="#7962A0" transform="translate(225,50)"/>
<path d="M0 0 C0.33 0 0.66 0 1 0 C1.02886338 4.47915328 1.04675187 8.95828291 1.0625 13.4375 C1.07087891 14.71689453 1.07925781 15.99628906 1.08789062 17.31445312 C1.09111328 18.52939453 1.09433594 19.74433594 1.09765625 20.99609375 C1.10289307 22.12200928 1.10812988 23.2479248 1.11352539 24.40795898 C1 27 1 27 0 28 C-5.13097072 28.59861325 -5.13097072 28.59861325 -8 28 C-10.21316748 26.19257989 -11.3899999 24.41500015 -13 22 C-8.71 22.33 -4.42 22.66 0 23 C0 15.41 0 7.82 0 0 Z " fill="#616386" transform="translate(280,25)"/>
<path d="M0 0 C0 10.23 0 20.46 0 31 C-0.33 31 -0.66 31 -1 31 C-1 22.09 -1 13.18 -1 4 C-2.32 4 -3.64 4 -5 4 C-5 5.65 -5 7.3 -5 9 C-5.66 9 -6.32 9 -7 9 C-8.38938077 7.03852126 -9.7260411 5.03833424 -11 3 C-9.68 3.33 -8.36 3.66 -7 4 C-7.33 3.01 -7.66 2.02 -8 1 C-1.125 0 -1.125 0 0 0 Z " fill="#8E90A5" transform="translate(281,52)"/>
<path d="M0 0 C3.45831586 -0.02894547 6.91660072 -0.04678 10.375 -0.0625 C11.35984375 -0.07087891 12.3446875 -0.07925781 13.359375 -0.08789062 C14.77089844 -0.09272461 14.77089844 -0.09272461 16.2109375 -0.09765625 C17.51490479 -0.10551147 17.51490479 -0.10551147 18.84521484 -0.11352539 C21 0 21 0 23 1 C23 1.66 23 2.32 23 3 C15.08 3 7.16 3 -1 3 C-0.67 2.01 -0.34 1.02 0 0 Z " fill="#234874" transform="translate(76,46)"/>
<path d="M0 0 C0.33 0 0.66 0 1 0 C1 2.31 1 4.62 1 7 C5.95 7 10.9 7 16 7 C16 4.69 16 2.38 16 0 C16.33 0 16.66 0 17 0 C17 3.3 17 6.6 17 10 C11.39 10 5.78 10 0 10 C0 6.7 0 3.4 0 0 Z " fill="#C9D8EE" transform="translate(404,45)"/>
<path d="M0 0 C7.68421053 -0.29554656 7.68421053 -0.29554656 11 2 C12.30475618 4.60951236 12.11301572 6.52701285 12.09765625 9.4453125 C12.09443359 10.52167969 12.09121094 11.59804687 12.08789062 12.70703125 C12.07951172 13.83496094 12.07113281 14.96289062 12.0625 16.125 C12.05798828 17.26066406 12.05347656 18.39632812 12.04882812 19.56640625 C12.03701615 22.37765638 12.02054507 25.1888023 12 28 C11.67 28 11.34 28 11 28 C11 20.74 11 13.48 11 6 C9.35 6 7.7 6 6 6 C3.6309479 4.60734681 2.01198387 2.91840322 0 1 C0 0.67 0 0.34 0 0 Z " fill="#554D6F" transform="translate(213,55)"/>
<path d="M0 0 C0.33 0 0.66 0 1 0 C1 1.65 1 3.3 1 5 C1.928125 4.95875 2.85625 4.9175 3.8125 4.875 C7 5 7 5 10 7 C9.67 7.99 9.34 8.98 9 10 C6.36 10.33 3.72 10.66 1 11 C1 12.65 1 14.3 1 16 C0.67 16 0.34 16 0 16 C-0.71033431 10.47032059 -1.30267176 5.50016964 0 0 Z " fill="#D2E9F8" transform="translate(111,46)"/>
<path d="M0 0 C5.46263311 -0.04952523 10.92513482 -0.08577896 16.38793945 -0.10986328 C18.24538449 -0.11990615 20.10281379 -0.13354304 21.96020508 -0.15087891 C24.63366591 -0.17520261 27.30691726 -0.18650033 29.98046875 -0.1953125 C31.2213752 -0.21079636 31.2213752 -0.21079636 32.48735046 -0.22659302 C36.78659015 -0.22742519 40.07985785 0.00013931 44 2 C44 2.33 44 2.66 44 3 C43.23042969 2.9278125 42.46085937 2.855625 41.66796875 2.78125 C32.67148601 2.0542615 23.71301755 1.88929879 14.6875 1.875 C12.87125122 1.86823242 12.87125122 1.86823242 11.01831055 1.86132812 C9.88176025 1.86326172 8.74520996 1.86519531 7.57421875 1.8671875 C6.54901123 1.86831543 5.52380371 1.86944336 4.4675293 1.87060547 C1.9961763 1.83534454 1.9961763 1.83534454 0 3 C0 2.01 0 1.02 0 0 Z " fill="#8577D0" transform="translate(341,56)"/>
<path d="M0 0 C4.18423892 3.50897269 8.19588166 7.08060535 12 11 C10.02 11.99 10.02 11.99 8 13 C6.8450079 12.26418258 5.70125815 11.51069961 4.5625 10.75 C3.60537109 10.12351562 3.60537109 10.12351562 2.62890625 9.484375 C0.67975393 7.70816905 0.53767522 6.52293757 0 4 C-1.9837767 2.71563266 -1.9837767 2.71563266 -4 2 C-2.68 1.34 -1.36 0.68 0 0 Z " fill="#F9E3FB" transform="translate(234,46)"/>
<path d="M0 0 C1 2 1 2 1 5 C14.365 5.495 14.365 5.495 28 6 C28 4.35 28 2.7 28 1 C28.33 1 28.66 1 29 1 C29 2.98 29 4.96 29 7 C27.78098999 7.03758423 27.78098999 7.03758423 26.53735352 7.07592773 C22.87889248 7.19149118 19.22071472 7.31439584 15.5625 7.4375 C14.28310547 7.47681641 13.00371094 7.51613281 11.68554688 7.55664062 C10.47060547 7.59853516 9.25566406 7.64042969 8.00390625 7.68359375 C6.87799072 7.72025146 5.7520752 7.75690918 4.59204102 7.79467773 C2.07146559 7.71218045 2.07146559 7.71218045 1 9 C-1.18639453 9.07258946 -3.37500389 9.08373783 -5.5625 9.0625 C-7.35880859 9.04896484 -7.35880859 9.04896484 -9.19140625 9.03515625 C-10.11824219 9.02355469 -11.04507813 9.01195312 -12 9 C-12 8.67 -12 8.34 -12 8 C-8.37 8 -4.74 8 -1 8 C-1.20625 7.05125 -1.4125 6.1025 -1.625 5.125 C-1.74875 4.09375 -1.8725 3.0625 -2 2 C-1.34 1.34 -0.68 0.68 0 0 Z " fill="#DAECFB" transform="translate(75,46)"/>
<path d="M0 0 C0.93423645 3.01031744 1.04449911 3.86650268 0 7 C5.28 7.66 10.56 8.32 16 9 C15.67 11.64 15.34 14.28 15 17 C14.34 16.67 13.68 16.34 13 16 C13 14.68 13 13.36 13 12 C8.37269289 10.9551242 3.71146122 10.48243721 -1 10 C-1.125 3.375 -1.125 3.375 0 0 Z " fill="#5680B1" transform="translate(113,40)"/>
<path d="M0 0 C4.95 0 9.9 0 15 0 C14.67 1.32 14.34 2.64 14 4 C9.71 4 5.42 4 1 4 C0.67 2.68 0.34 1.36 0 0 Z " fill="#2D457A" transform="translate(405,56)"/>
<path d="M0 0 C0.66 0.33 1.32 0.66 2 1 C1.67 1.66 1.34 2.32 1 3 C6.61 3.33 12.22 3.66 18 4 C18 4.66 18 5.32 18 6 C16.86820313 6.04898438 15.73640625 6.09796875 14.5703125 6.1484375 C13.08851661 6.22346514 11.606747 6.29901297 10.125 6.375 C9.37863281 6.4059375 8.63226563 6.436875 7.86328125 6.46875 C3.46526812 6.55643831 3.46526812 6.55643831 0 9 C-1.5625 7.75 -1.5625 7.75 -3 6 C-2.72963853 3.02602384 -2.14553974 2.14553974 0 0 Z " fill="#313C5C" transform="translate(182,49)"/>
<path d="M0 0 C2.68826864 0.11490912 5.37513469 0.24163199 8.0625 0.375 C8.81466797 0.4059375 9.56683594 0.436875 10.34179688 0.46875 C15.18961281 0.72058459 19.38308043 1.49168365 24 3 C24 5.64 24 8.28 24 11 C23.67 11 23.34 11 23 11 C23 9.02 23 7.04 23 5 C21.35 5 19.7 5 18 5 C18 4.34 18 3.68 18 3 C17.20335937 3.02320313 16.40671875 3.04640625 15.5859375 3.0703125 C5.06151142 3.24956063 5.06151142 3.24956063 0 1 C0 0.67 0 0.34 0 0 Z " fill="#696FB4" transform="translate(362,57)"/>
<path d="M0 0 C35.71615721 1.3580786 35.71615721 1.3580786 39 3 C38.67 3.99 38.34 4.98 38 6 C37.195625 5.690625 36.39125 5.38125 35.5625 5.0625 C27.06964864 2.52954433 18.0001798 2.72867397 9.20117188 2.48242188 C8.30076172 2.44826172 7.40035156 2.41410156 6.47265625 2.37890625 C5.66062744 2.3538501 4.84859863 2.32879395 4.01196289 2.30297852 C2 2 2 2 0 0 Z " fill="#4576B0" transform="translate(64,56)"/>
<path d="M0 0 C0.33 0 0.66 0 1 0 C1 1.98 1 3.96 1 6 C6.28 6 11.56 6 17 6 C17 6.99 17 7.98 17 9 C11.72 9 6.44 9 1 9 C-0.4783226 6.04335481 -0.06032783 3.25770263 0 0 Z " fill="#B3C2F2" transform="translate(24,46)"/>
<path d="M0 0 C9.41002278 -0.3690205 9.41002278 -0.3690205 14 2 C14 2.66 14 3.32 14 4 C15.32 4 16.64 4 18 4 C18 4.66 18 5.32 18 6 C19.98 6 21.96 6 24 6 C24 6.33 24 6.66 24 7 C19.07735363 7.19690585 15.62246089 6.56989238 11 5 C7.01377435 4.2426683 3.0111554 3.61011102 -1 3 C-0.67 2.01 -0.34 1.02 0 0 Z " fill="#302449" transform="translate(235,42)"/>
<path d="M0 0 C0.66 0 1.32 0 2 0 C2 2.31 2 4.62 2 7 C-6.58 7 -15.16 7 -24 7 C-24 6.67 -24 6.34 -24 6 C-11.625 5.01 -11.625 5.01 1 4 C0.67 2.68 0.34 1.36 0 0 Z " fill="#D194DB" transform="translate(324,45)"/>
<path d="M0 0 C1 2 1 2 0 9 C5.61 9 11.22 9 17 9 C17 9.66 17 10.32 17 11 C13.39006828 12.13480527 10.0157673 12.10015767 6.25 12.0625 C5.07953125 12.05347656 3.9090625 12.04445313 2.703125 12.03515625 C1.81109375 12.02355469 0.9190625 12.01195312 0 12 C-1.1898306 9.6203388 -1.13349966 8.08514265 -1.125 5.4375 C-1.12886719 4.22900391 -1.12886719 4.22900391 -1.1328125 2.99609375 C-1 1 -1 1 0 0 Z " fill="#84598D" transform="translate(336,34)"/>
<path d="M0 0 C0 0.66 0 1.32 0 2 C-2.97 3.65 -5.94 5.3 -9 7 C-9.2236068 9.9254644 -9.2236068 9.9254644 -8 12 C-8.66 12.66 -9.32 13.32 -10 14 C-12.32590854 10.36576791 -12.16265833 7.22911669 -12 3 C-10.75336669 2.49166409 -9.50250613 1.99368855 -8.25 1.5 C-7.55390625 1.2215625 -6.8578125 0.943125 -6.140625 0.65625 C-4 0 -4 0 0 0 Z " fill="#4E6B99" transform="translate(125,57)"/>
<path d="M0 0 C0.33 0 0.66 0 1 0 C1 8.25 1 16.5 1 25 C-9 28 -9 28 -13 27 C-11.21046815 26.16209211 -9.41830305 25.32980604 -7.625 24.5 C-6.62726563 24.0359375 -5.62953125 23.571875 -4.6015625 23.09375 C-2 22 -2 22 0 22 C0 14.74 0 7.48 0 0 Z " fill="#626375" transform="translate(224,25)"/>
<path d="M0 0 C6.98942918 -0.602537 6.98942918 -0.602537 9.8671875 1.11328125 C11.30861002 2.33745588 12.66278229 3.66278229 14 5 C12.0625 5.5625 12.0625 5.5625 10 6 C9.67 5.67 9.34 5.34 9 5 C7.48530552 4.76807135 5.96245438 4.58784762 4.4375 4.4375 C3.61121094 4.35371094 2.78492188 4.26992188 1.93359375 4.18359375 C1.29550781 4.12300781 0.65742188 4.06242187 0 4 C0 2.68 0 1.36 0 0 Z " fill="#7C4D88" transform="translate(230,55)"/>
<path d="M0 0 C0.33 0.99 0.66 1.98 1 3 C8.59 3 16.18 3 24 3 C24 3.33 24 3.66 24 4 C20.23083783 4.39328061 16.45963893 4.76147442 12.6875 5.125 C11.0797168 5.29322266 11.0797168 5.29322266 9.43945312 5.46484375 C8.41142578 5.56152344 7.38339844 5.65820312 6.32421875 5.7578125 C5.37635498 5.8520752 4.42849121 5.94633789 3.4519043 6.04345703 C1 6 1 6 -2 4 C-1.34 2.68 -0.68 1.36 0 0 Z " fill="#B26FC0" transform="translate(297,46)"/>
<path d="M0 0 C0 0.66 0 1.32 0 2 C-8.90436322 6.8966711 -15.83219478 8.89862763 -26 8 C-26 7.67 -26 7.34 -26 7 C-25.17757812 6.91363281 -24.35515625 6.82726563 -23.5078125 6.73828125 C-16.57436819 5.865596 -11.09838244 4.51501715 -5.0234375 1.0234375 C-3 0 -3 0 0 0 Z " fill="#372F5E" transform="translate(224,45)"/>
<path d="M0 0 C4.62 0 9.24 0 14 0 C14 0.99 14 1.98 14 3 C9.05 3 4.1 3 -1 3 C-0.67 2.01 -0.34 1.02 0 0 Z " fill="#2F5E95" transform="translate(406,49)"/>
<path d="M0 0 C0.99 0.33 1.98 0.66 3 1 C4.39439664 1.06665376 5.79169875 1.08538199 7.1875 1.0625 C8.445625 1.041875 9.70375 1.02125 11 1 C11 1.66 11 2.32 11 3 C13.97 3 16.94 3 20 3 C20 3.33 20 3.66 20 4 C13.4 4 6.8 4 0 4 C0 2.68 0 1.36 0 0 Z " fill="#21486E" transform="translate(63,58)"/>
<path d="M0 0 C0.33 0 0.66 0 1 0 C1.66 3.96 2.32 7.92 3 12 C4.98 12 6.96 12 9 12 C9 12.66 9 13.32 9 14 C9.66 14.33 10.32 14.66 11 15 C10.195625 15.12375 9.39125 15.2475 8.5625 15.375 C7.716875 15.58125 6.87125 15.7875 6 16 C5.67 16.66 5.34 17.32 5 18 C0.93387143 12.09755529 0.25680094 7.10054603 0 0 Z " fill="#F0D5F4" transform="translate(334,39)"/>
<path d="M0 0 C0.99 0.33 1.98 0.66 3 1 C4.52029209 1.13550961 6.04506788 1.22398098 7.5703125 1.28125 C8.4675 1.31863281 9.3646875 1.35601562 10.2890625 1.39453125 C11.22492188 1.42933594 12.16078125 1.46414062 13.125 1.5 C19.7976903 1.754467 26.37022229 2.18653034 33 3 C33 3.33 33 3.66 33 4 C22.77 4 12.54 4 2 4 C1.34 2.68 0.68 1.36 0 0 Z " fill="#30639B" transform="translate(63,56)"/>
<path d="M0 0 C4.95 0.99 4.95 0.99 10 2 C9.67 2.66 9.34 3.32 9 4 C13.29 5.32 17.58 6.64 22 8 C16.21963082 9.44509229 11.55148047 7.95412113 6 6 C3.54023327 4.51143268 1.99703905 3.10798567 0 1 C0 0.67 0 0.34 0 0 Z " fill="#724B85" transform="translate(231,43)"/>
<path d="M0 0 C5.52677733 -0.19392201 9.75614911 0.2520497 15 2 C15 2.66 15 3.32 15 4 C9.84828377 4.09038099 5.08086796 3.84681133 0 3 C0 2.01 0 1.02 0 0 Z " fill="#4D2C5A" transform="translate(336,40)"/>
<path d="M0 0 C6.6 0 13.2 0 20 0 C20 0.33 20 0.66 20 1 C18.55367188 1.19916016 18.55367188 1.19916016 17.078125 1.40234375 C15.18320312 1.66724609 15.18320312 1.66724609 13.25 1.9375 C11.99703125 2.11152344 10.7440625 2.28554688 9.453125 2.46484375 C6.90017407 2.86049338 4.4813709 3.30446422 2 4 C1.34 2.68 0.68 1.36 0 0 Z " fill="#7D51A9" transform="translate(342,57)"/>
<path d="M0 0 C0.33 0 0.66 0 1 0 C1 2.97 1 5.94 1 9 C0.67 8.34 0.34 7.68 0 7 C-2.11846285 6.31270746 -2.11846285 6.31270746 -4.5625 5.875 C-5.38878906 5.70742188 -6.21507812 5.53984375 -7.06640625 5.3671875 C-7.70449219 5.24601562 -8.34257812 5.12484375 -9 5 C-8.67 4.34 -8.34 3.68 -8 3 C-5.35139573 2.40644386 -2.70802678 2.25790731 0 2 C0 1.34 0 0.68 0 0 Z " fill="#BB90D3" transform="translate(224,50)"/>
<path d="M0 0 C0.33 0.99 0.66 1.98 1 3 C-4.94 3 -10.88 3 -17 3 C-17 2.34 -17 1.68 -17 1 C-14.54171921 0.83252588 -12.08338135 0.6659856 -9.625 0.5 C-8.92632812 0.45230469 -8.22765625 0.40460937 -7.5078125 0.35546875 C-2.2265625 0 -2.2265625 0 0 0 Z " fill="#F4F7FE" transform="translate(383,52)"/>
<path d="M0 0 C2.31 0 4.62 0 7 0 C6.01 1.485 6.01 1.485 5 3 C6.98 4.65 8.96 6.3 11 8 C10.01 9.485 10.01 9.485 9 11 C7.86874978 9.92319498 6.74525081 8.83824365 5.625 7.75 C4.99851563 7.14671875 4.37203125 6.5434375 3.7265625 5.921875 C2.02689839 4.0299412 1.01540134 2.31798691 0 0 Z " fill="#605574" transform="translate(244,55)"/>
<path d="M0 0 C3.96 0 7.92 0 12 0 C12.66 1.65 13.32 3.3 14 5 C12.7625 4.5359375 12.7625 4.5359375 11.5 4.0625 C7.60873845 2.88122417 4.03833047 2.41775832 0 2 C0 1.34 0 0.68 0 0 Z " fill="#312546" transform="translate(336,38)"/>
<path d="M0 0 C4.29 0.33 8.58 0.66 13 1 C12 3 12 3 8.625 4.25 C7.42875 4.4975 6.2325 4.745 5 5 C4.01 4.34 3.02 3.68 2 3 C1.67 3.66 1.34 4.32 1 5 C0.67 3.35 0.34 1.7 0 0 Z " fill="#1D2D4E" transform="translate(405,59)"/>
<path d="M0 0 C3.3 0 6.6 0 10 0 C10.125 3.375 10.125 3.375 10 7 C9.34 7.66 8.68 8.32 8 9 C7.67 7.68 7.34 6.36 7 5 C7.66 5 8.32 5 9 5 C9 4.34 9 3.68 9 3 C7.700625 2.87625 6.40125 2.7525 5.0625 2.625 C2.84765625 2.4140625 2.84765625 2.4140625 1 2 C0.67 1.34 0.34 0.68 0 0 Z " fill="#424C6B" transform="translate(375,65)"/>
<path d="M0 0 C0.66 0.99 1.32 1.98 2 3 C1.01 3 0.02 3 -1 3 C-0.67 3.66 -0.34 4.32 0 5 C2.8159849 5.46898963 2.8159849 5.46898963 6.0625 5.625 C7.71958984 5.73714844 7.71958984 5.73714844 9.41015625 5.8515625 C10.26480469 5.90054688 11.11945313 5.94953125 12 6 C12 6.33 12 6.66 12 7 C6.39 7 0.78 7 -5 7 C-4.34 6.67 -3.68 6.34 -3 6 C-2.29788106 4.34795544 -1.63028587 2.68076231 -1 1 C-0.67 0.67 -0.34 0.34 0 0 Z " fill="#28324F" transform="translate(186,46)"/>
<path d="M0 0 C0 1.32 0 2.64 0 4 C-1.4370809 4.05422947 -2.87475462 4.09289723 -4.3125 4.125 C-5.11300781 4.14820313 -5.91351563 4.17140625 -6.73828125 4.1953125 C-9 4 -9 4 -12 2 C-10.37548581 1.66430703 -8.75037083 1.3315204 -7.125 1 C-6.22007812 0.814375 -5.31515625 0.62875 -4.3828125 0.4375 C-2 0 -2 0 0 0 Z " fill="#2B3350" transform="translate(280,44)"/>
<path d="M0 0 C0.33 0.99 0.66 1.98 1 3 C-0.98 3 -2.96 3 -5 3 C-5 4.65 -5 6.3 -5 8 C-6.65 6.35 -8.3 4.7 -10 3 C-8.68 3.33 -7.36 3.66 -6 4 C-6.33 3.01 -6.66 2.02 -7 1 C-3.535 0.505 -3.535 0.505 0 0 Z " fill="#F5F2FD" transform="translate(280,52)"/>
<path d="M0 0 C1.31189035 2.62378071 1.63017423 5.10303146 2 8 C1 9 1 9 -1.94140625 9.09765625 C-3.73384766 9.08025391 -3.73384766 9.08025391 -5.5625 9.0625 C-7.35880859 9.04896484 -7.35880859 9.04896484 -9.19140625 9.03515625 C-10.11824219 9.02355469 -11.04507813 9.01195312 -12 9 C-12 8.67 -12 8.34 -12 8 C-8.37 8 -4.74 8 -1 8 C-1.20625 7.05125 -1.4125 6.1025 -1.625 5.125 C-1.74875 4.09375 -1.8725 3.0625 -2 2 C-1.34 1.34 -0.68 0.68 0 0 Z " fill="#D8E3ED" transform="translate(75,46)"/>
<path d="M0 0 C0.66 0 1.32 0 2 0 C2.33 3.96 2.66 7.92 3 12 C2.01 12.33 1.02 12.66 0 13 C0 8.71 0 4.42 0 0 Z " fill="#576169" transform="translate(335,69)"/>
<path d="M0 0 C0.93423645 3.01031744 1.04449911 3.86650268 0 7 C1.1446875 7.185625 1.1446875 7.185625 2.3125 7.375 C5 8 5 8 8 10 C5.03 10 2.06 10 -1 10 C-1.125 3.375 -1.125 3.375 0 0 Z " fill="#618CB5" transform="translate(113,40)"/>
<path d="M0 0 C0 0.66 0 1.32 0 2 C-1.75 3.7265625 -1.75 3.7265625 -4 5.625 C-4.7425 6.25664062 -5.485 6.88828125 -6.25 7.5390625 C-6.8275 8.02117188 -7.405 8.50328125 -8 9 C-8.33 7.68 -8.66 6.36 -9 5 C-7.87926138 4.16094435 -6.75325453 3.32892169 -5.625 2.5 C-4.99851562 2.0359375 -4.37203125 1.571875 -3.7265625 1.09375 C-2 0 -2 0 0 0 Z " fill="#464D5B" transform="translate(347,25)"/>
<path d="M0 0 C0.53625 0.226875 1.0725 0.45375 1.625 0.6875 C1.295 1.3475 0.965 2.0075 0.625 2.6875 C-2.09765625 3.5390625 -2.09765625 3.5390625 -5.4375 4.3125 C-6.54222656 4.57289062 -7.64695312 4.83328125 -8.78515625 5.1015625 C-9.63980469 5.29492188 -10.49445313 5.48828125 -11.375 5.6875 C-8.25679775 2.39349406 -4.76724115 -0.62726857 0 0 Z " fill="#365080" transform="translate(127.375,58.3125)"/>
<path d="M0 0 C0.66 0.33 1.32 0.66 2 1 C1.67 1.66 1.34 2.32 1 3 C1.99 3.66 2.98 4.32 4 5 C3.01 5.33 2.02 5.66 1 6 C1 6.99 1 7.98 1 9 C-0.32 8.01 -1.64 7.02 -3 6 C-2.42655063 3.13275314 -2.1385485 2.1385485 0 0 Z " fill="#6D778C" transform="translate(182,49)"/>
<path d="M0 0 C4.29 0.33 8.58 0.66 13 1 C11 3 11 3 8.8359375 3.1953125 C7.61777344 3.16050781 7.61777344 3.16050781 6.375 3.125 C5.55773437 3.10695312 4.74046875 3.08890625 3.8984375 3.0703125 C3.27195313 3.04710937 2.64546875 3.02390625 2 3 C2 2.34 2 1.68 2 1 C1.34 0.67 0.68 0.34 0 0 Z " fill="#B98AD3" transform="translate(241,52)"/>
<path d="M0 0 C1.32 0 2.64 0 4 0 C4.12375 0.639375 4.2475 1.27875 4.375 1.9375 C4.684375 2.9584375 4.684375 2.9584375 5 4 C5.66 4.33 6.32 4.66 7 5 C6.67 5.66 6.34 6.32 6 7 C3.69 6.34 1.38 5.68 -1 5 C-0.67 3.35 -0.34 1.7 0 0 Z " fill="#719ACC" transform="translate(122,52)"/>
<path d="M0 0 C0 0.99 0 1.98 0 3 C-1.4117783 3.53394179 -2.82970244 4.05165104 -4.25 4.5625 C-5.03890625 4.85253906 -5.8278125 5.14257812 -6.640625 5.44140625 C-9.19103452 6.04522837 -10.55322229 5.8473932 -13 5 C-11.21046815 4.16209211 -9.41830305 3.32980604 -7.625 2.5 C-6.62726563 2.0359375 -5.62953125 1.571875 -4.6015625 1.09375 C-2 0 -2 0 0 0 Z " fill="#553A7D" transform="translate(224,47)"/>
<path d="M0 0 C1.32 0 2.64 0 4 0 C4 1.65 4 3.3 4 5 C3.01 5.33 2.02 5.66 1 6 C0 5 0 5 -0.0625 2.4375 C-0.041875 1.633125 -0.02125 0.82875 0 0 Z " fill="#37375F" transform="translate(276,56)"/>
<path d="M0 0 C-0.66 0.66 -1.32 1.32 -2 2 C-4.1875 1.6875 -4.1875 1.6875 -7 1 C-9.33177975 0.65596692 -11.66487041 0.32050798 -14 0 C-14 -0.33 -14 -0.66 -14 -1 C-12.41870971 -1.22331199 -10.83478911 -1.42804644 -9.25 -1.625 C-8.36828125 -1.74101563 -7.4865625 -1.85703125 -6.578125 -1.9765625 C-3.77140122 -2.00207817 -2.36615134 -1.44843844 0 0 Z " fill="#2E3053" transform="translate(272,57)"/>
<path d="M0 0 C2.31 0.33 4.62 0.66 7 1 C6.67 1.66 6.34 2.32 6 3 C4.68 3 3.36 3 2 3 C1.67 3.66 1.34 4.32 1 5 C0.67 3.35 0.34 1.7 0 0 Z " fill="#FAE0FE" transform="translate(338,52)"/>
<path d="M0 0 C2.97 0.99 5.94 1.98 9 3 C9 3.33 9 3.66 9 4 C6.03 4 3.06 4 0 4 C0 2.68 0 1.36 0 0 Z " fill="#1D3A5C" transform="translate(63,58)"/>
<path d="M0 0 C2.475 0.495 2.475 0.495 5 1 C5 1.99 5 2.98 5 4 C3.35 4 1.7 4 0 4 C0 2.68 0 1.36 0 0 Z " fill="#BB7DC7" transform="translate(230,49)"/>
<path d="M0 0 C-0.33 0.66 -0.66 1.32 -1 2 C-3.06265822 2.3911938 -5.09443267 2.50674519 -7.1875 2.65625 C-7.785625 2.7696875 -8.38375 2.883125 -9 3 C-9.33 3.66 -9.66 4.32 -10 5 C-10 4.01 -10 3.02 -10 2 C-6.49223216 0.39644899 -3.85645121 -0.22036864 0 0 Z " fill="#ECC6F7" transform="translate(350,53)"/>
<path d="M0 0 C2.76276177 0.52268466 5.3260876 1.10869587 8 2 C8 2.66 8 3.32 8 4 C5.125 3.6875 5.125 3.6875 2 3 C1.34 2.01 0.68 1.02 0 0 Z " fill="#68438C" transform="translate(216,55)"/>
</svg>
